<svg id="Layer_1" data-name="Layer 1" xmlns="http://www.w3.org/2000/svg" viewBox="0 0 83.84 48.98"><title>bux</title><polygon points="70.29 29.6 81.99 15.07 73.02 15.07 65.84 24.3 58.78 15.07 50.07 15.07 59.72 27.39 65.8 34.94 65.84 34.89 68.97 38.88 75.28 46.73 83.84 46.73 70.29 29.6" fill="#fff"/><path d="M65.71,35.23h0l-5,6h0A5.65,5.65,0,0,1,56.14,43q-6.21,0-6.21-7.87V17H42.62V32.91a11.73,11.73,0,0,0-1.91-4.63,12.66,12.66,0,0,0-6.32-4.57,9.92,9.92,0,0,0,4.45-4,11.86,11.86,0,0,0,1.53-6.08q0-6.39-4.36-9.52T22.72,1H8.16V7.07h3.38v11.6h7.34V7.07h4.85a11.73,11.73,0,0,1,6.89,1.74A6,6,0,0,1,33.06,14q0,7.38-9.27,7.38H18.88v0H11.54v22.5H8.16v6.11h14.3q10.2,0,15.33-3.66a11.76,11.76,0,0,0,4.94-8.34,14.09,14.09,0,0,0,.8,3.94,11.16,11.16,0,0,0,3.22,4.45,13.78,13.78,0,0,0,9.39,3.22,13.83,13.83,0,0,0,9.43-3.22,12.45,12.45,0,0,0,2-2.27l4.69-6-4.38-5.45ZM33.63,41A8.42,8.42,0,0,1,29,43.29a39.67,39.67,0,0,1-7.22.54H18.88V27.45H23.6q6,0,8.92,2a6.87,6.87,0,0,1,2.88,6.06Q35.4,39.16,33.63,41Z" transform="translate(-8.16 -0.96)" fill="#fff"/></svg>